<?xml version="1.0" encoding="utf-8"?>
<!-- Generator: Adobe Illustrator 19.2.1, SVG Export Plug-In . SVG Version: 6.00 Build 0)  -->
<svg version="1.1" id="layer" xmlns="http://www.w3.org/2000/svg" xmlns:xlink="http://www.w3.org/1999/xlink" x="0px" y="0px"
	 viewBox="0 0 652 652" style="enable-background:new 0 0 652 652;" xml:space="preserve">
<style type="text/css">
	.st0{fill:#DE0113;}
	.st1{fill:#14217F;}
	.st2{fill:#FFFFFF;}
</style>
<path class="st0" d="M321.3,405.7c-105.7,0-206.8-19.6-300-55.2v10.2c90.1,45.7,192.1,71.4,300,71.4s209.9-25.7,300-71.4v-10.2
	C528.2,386.1,427,405.7,321.3,405.7"/>
<path class="st1" d="M621.3,340.6V209.2h-600v131.4c93.3,35,194.4,54.1,300,54.1S528,375.6,621.3,340.6"/>
<path class="st2" d="M556.3,280.4h-8.5v-8.7h8.5v-13.4H567v13.4h11.8v8.7H567v26c0,2.7,0.9,4.5,4.6,4.5c2.5,0,5.3-0.4,7.2-0.6v8.8
	c0,0-4.2,0.6-8.3,0.6c-11.3,0-14.2-4.9-14.2-12.6V280.4z M522.6,310.9c-12,0-19.5-5-19.5-5l-4.8,8.1c5,2.9,12,5.7,23.9,5.7
	c13.6,0,23.6-5.4,23.6-15.8c0-20.2-36-9.5-36-20c0-2.5,2.9-4.9,10.8-4.9c10.6,0,17.7,4.7,17.7,4.7l4.6-7.8
	c-1.9-1.2-9.5-5.7-22.2-5.7c-12.8,0-21.3,4.9-21.3,14c0,20.5,36,9.9,36,20.3C535.4,308.6,530,310.9,522.6,310.9 M274.3,310.9
	c-12,0-19.5-5-19.5-5l-4.8,8.1c5,2.9,12,5.7,23.9,5.7c13.6,0,23.6-5.4,23.6-15.8c0-20.2-36-9.5-36-20c0-2.5,2.9-4.9,10.8-4.9
	c10.6,0,17.7,4.7,17.7,4.7l4.6-7.8c-1.9-1.2-9.5-5.7-22.2-5.7c-12.8,0-21.3,4.9-21.3,14c0,20.5,36,9.9,36,20.3
	C287.2,308.6,281.8,310.9,274.3,310.9 M159,290c10.4-0.5,12.9-1.4,12.9-5.1c0-4.2-5.2-5.8-12-5.8c-9.9,0-17,4.7-17,4.7l-4.6-7.8
	c0,0,8.6-5.7,21.9-5.7c12.5,0,21.6,3.7,21.6,14.8v33.4h-9.8l-0.2-4.3c0,0-5.5,5.6-16.7,5.6c-13.8,0-19.7-5.9-19.7-15.1
	C135.5,291.3,149.1,290.5,159,290 M171.9,295.7c0,0-2.6,2.1-13,2.6c-9.2,0.4-13,1.7-13,6.6c0,4.2,3.5,6.3,10.9,6.3
	c8.6,0,15.1-3.2,15.1-8.3V295.7z M328.1,290c10.4-0.5,12.9-1.4,12.9-5.1c0-4.2-5.2-5.8-12-5.8c-9.9,0-17,4.7-17,4.7l-4.6-7.8
	c0,0,8.6-5.7,21.9-5.7c12.5,0,21.6,3.7,21.6,14.8v33.4h-9.8l-0.2-4.3c0,0-5.5,5.6-16.7,5.6c-13.8,0-19.7-5.9-19.7-15.1
	C304.6,291.3,318.2,290.5,328.1,290 M341,295.7c0,0-2.6,2.1-13,2.6c-9.2,0.4-13,1.7-13,6.6c0,4.2,3.5,6.3,10.9,6.3
	c8.6,0,15.1-3.2,15.1-8.3V295.7z M466.6,290c10.4-0.5,12.9-1.4,12.9-5.1c0-4.2-5.2-5.8-12-5.8c-9.9,0-17,4.7-17,4.7L446,276
	c0,0,8.6-5.7,21.9-5.7c12.5,0,21.6,3.7,21.6,14.8v33.4h-9.8l-0.2-4.3c0,0-5.5,5.6-16.7,5.6c-13.8,0-19.7-5.9-19.7-15.1
	C443.1,291.3,456.7,290.5,466.6,290 M479.5,295.7c0,0-2.6,2.1-13,2.6c-9.2,0.4-13,1.7-13,6.6c0,4.2,3.5,6.3,10.9,6.3
	c8.6,0,15.1-3.2,15.1-8.3V295.7z M204.9,288.7c0-6.1,5.6-9.5,13.7-9.5c7.7,0,11.3,2.1,11.3,9.5v29.7h10.7v-29.7
	c0-11.9-6.3-18.4-19.7-18.4c-9.8,0-14.7,4.4-15.8,5.7h-0.2v-4.4h-10.7v46.8h10.7V288.7z M433.6,255.3H423v63.1h10.7V255.3z
	 M78.2,290.1h36.9v28.3h11v-62.7h-11v25.1H78.2v-25.1h-11v62.7h11V290.1z M374,340.6h-10.7v-69H374v4.4h0.2
	c1.1-1.2,6.5-5.7,15.7-5.7c16.3,0,23.6,11.2,23.6,24.6c0,13.5-7.4,24.8-23.6,24.8c-9.6,0-14.3-4.1-15.7-5.7H374V340.6z M374,302.2
	c0,5.9,6.1,8.7,14.3,8.7c10,0,13.9-6.3,13.9-15.8c0-9.4-3.9-16.1-13.9-16.1c-8.1,0-14.3,3.6-14.3,8.8V302.2z"/>
</svg>
